<svg id="Layer_1" data-name="Layer 1" xmlns="http://www.w3.org/2000/svg" viewBox="0 0 368.25 371.91"><defs><style>.cls-1{fill:#fe0000;}.cls-1,.cls-4{stroke:#020202;}.cls-1,.cls-2,.cls-3,.cls-4{stroke-miterlimit:10;}.cls-1,.cls-2{stroke-width:0.75px;}.cls-2{fill:#fff;}.cls-2,.cls-3{stroke:#000;}.cls-3{fill:#ececec;}.cls-4{fill:none;}</style></defs><ellipse class="cls-1" cx="184.13" cy="185.88" rx="183.75" ry="185.5"/><path class="cls-2" d="M785.27,484.75c85.59-19.21,90.46-43.49,90.41-85-.07-51.58-82.67-89.1-86.43-91-59.68-29.13-100.06-71.62-100.06-114.67,0-76.12,96.08-80,96.08-80V484.75" transform="translate(-605.13 -113.42)"/><path class="cls-3" d="M800,439.42c-2.94,10.06-.19,44-2.7,43.31-2,2.53-11.83,2.06-11.83,2.06s-10.16.47-12.21-2.06c-2.5.73.24-33.25-2.69-43.31-4.47-4.14-25.24-12.15-25.24-12.15l2.51-8.37,5.73-1.46-1.79-4.37s12.89-35.68,11.1-58.61c1.43-8,9.31-26.58-.36-109.22.36-5.46,2.86-63,3.58-65.9.61-2.48,10.82-51.92,17.6-63.2a6.62,6.62,0,0,1,1.58-2,6.62,6.62,0,0,1,1.58,2c6.78,11.28,17,60.72,17.6,63.2.72,2.91,3.23,60.44,3.58,65.9-9.67,82.64-1.79,101.21-.35,109.22-1.8,22.93,11.1,58.61,11.1,58.61L817,417.44l5.73,1.46,2.5,8.37S804.45,435.28,800,439.42Z" transform="translate(-605.13 -113.42)"/><line class="cls-4" x1="180.15" y1="0.77" x2="180.33" y2="371.37"/></svg>